<svg xmlns="http://www.w3.org/2000/svg" width="567" height="237" viewBox="0 0 567 237"><g transform="translate(-776 -80)"><text transform="translate(863 150)" fill="#ffe5d9" font-size="70" font-family="Nunito-ExtraBold, Nunito" font-weight="800"><tspan x="0" y="71">CREATE</tspan><tspan y="71" fill="#e07a5f">…</tspan></text><text transform="translate(776 80)" fill="#e07a5f" font-size="70" font-family="Nunito-ExtraBold, Nunito" font-weight="800"><tspan x="0" y="71">&lt;</tspan><tspan y="71" xml:space="preserve" fill="#ffe5d9"> BUILD </tspan><tspan y="71">/&gt;</tspan></text><g transform="translate(10 6)"><text transform="translate(949 215)" fill="#ffe5d9" font-size="70" font-family="Nunito-ExtraBold, Nunito" font-weight="800"><tspan x="-360.85" y="71">INNOVATE</tspan></text><path d="M17.925,5.4l2.089-2.089a2.249,2.249,0,0,1,3.19,0L41.5,21.593a2.249,2.249,0,0,1,0,3.19L23.2,43.075a2.249,2.249,0,0,1-3.19,0l-2.089-2.089a2.261,2.261,0,0,1,.038-3.227L29.3,26.956H2.258A2.253,2.253,0,0,1,0,24.7V21.687a2.253,2.253,0,0,1,2.258-2.258H29.3L17.963,8.627A2.245,2.245,0,0,1,17.925,5.4Z" transform="translate(891 239.807)" fill="#e07a5f"/><rect width="7.5" height="33.5" rx="2" transform="translate(898.5 266.5) rotate(180)" fill="#e07a5f"/></g></g></svg>