<svg xmlns="http://www.w3.org/2000/svg" xmlns:xlink="http://www.w3.org/1999/xlink" width="38.915" height="40.999" viewBox="0 0 38.915 40.999"><defs><clipPath id="a"><rect width="6" height="6" fill="none"/></clipPath></defs><g transform="translate(-123 -91)"><path d="M-192.5,48a20.372,20.372,0,0,1-7.98-1.611A20.432,20.432,0,0,1-207,42a20.432,20.432,0,0,1-4.393-6.516A20.37,20.37,0,0,1-213,27.5a20.372,20.372,0,0,1,1.611-7.98A20.432,20.432,0,0,1-207,13a20.432,20.432,0,0,1,6.516-4.393A20.372,20.372,0,0,1-192.5,7a20.5,20.5,0,0,1,18.015,10.709c-.045.077-.09.161-.135.25l-6.705,12.929L-188.477,18.2a2.554,2.554,0,0,0-.813-.961,2.091,2.091,0,0,0-1.121-.264h-.069a1.841,1.841,0,0,0-1.342.473,1.84,1.84,0,0,0-.426,1.357l.314,18.028c.022,1.175.6,1.77,1.715,1.77h.056a1.745,1.745,0,0,0,1.3-.473,1.88,1.88,0,0,0,.411-1.357l-.22-12.628,5.819,10.129a2.208,2.208,0,0,0,.643.724,1.558,1.558,0,0,0,.893.239h.042a1.5,1.5,0,0,0,.9-.256,2.451,2.451,0,0,0,.617-.761l5.46-10.387.221,12.683a20.558,20.558,0,0,1-7.426,8.29A20.436,20.436,0,0,1-192.5,48Z" transform="translate(336 84)" fill="#ffe5d9"/><g transform="translate(-2 -0.5)"><g transform="translate(136 98)" clip-path="url(#a)"><g transform="translate(-136 -98)"><circle cx="3" cy="3" r="3" transform="translate(136 98)" fill="#5c8084"/></g></g><path d="M3,0A3,3,0,1,1,0,3,3,3,0,0,1,3,0Z" transform="translate(128.86 105)" fill="#e07a5f"/><path d="M3,0A3,3,0,1,1,0,3,3,3,0,0,1,3,0Z" transform="translate(128.86 114)" fill="#5c8084"/><path d="M3,0A3,3,0,1,1,0,3,3,3,0,0,1,3,0Z" transform="translate(135.86 120)" fill="#e07a5f"/></g></g></svg>