<svg xmlns="http://www.w3.org/2000/svg" xmlns:xlink="http://www.w3.org/1999/xlink" width="25" height="24" viewBox="0 0 25 24"><defs><clipPath id="a"><rect width="25" height="24" rx="3" transform="translate(320 4111)" fill="#fff"/></clipPath></defs><g transform="translate(-320 -4111)" clip-path="url(#a)"><path d="M23.624,2.25H1.812A1.825,1.825,0,0,0,0,4.084V25.857a1.825,1.825,0,0,0,1.812,1.834H23.624a1.83,1.83,0,0,0,1.817-1.834V4.084A1.83,1.83,0,0,0,23.624,2.25ZM7.689,24.056H3.918V11.915H7.695V24.056ZM5.8,10.257A2.186,2.186,0,1,1,7.99,8.071,2.187,2.187,0,0,1,5.8,10.257Zm16.02,13.8H18.053V18.151c0-1.408-.028-3.22-1.959-3.22-1.965,0-2.266,1.533-2.266,3.118v6.008H10.057V11.915h3.617v1.658h.051A3.972,3.972,0,0,1,17.3,11.614c3.816,0,4.526,2.516,4.526,5.787Z" transform="translate(319.65 4108.195)" fill="#ffe5d9"/></g></svg>