<svg xmlns="http://www.w3.org/2000/svg" width="93" height="41.001" viewBox="0 0 93 41.001">
    <g transform="translate(-615 158)">
        <path d="M25.94,41H20.5a20.506,20.506,0,0,1-7.98-39.389A20.372,20.372,0,0,1,20.5,0h52A20.435,20.435,0,0,1,86.991,6H30a3,3,0,0,0,0,6H91.16A20.527,20.527,0,0,1,89.1,32.531V17.88a2.093,2.093,0,0,0-2.32-2.4,2.77,2.77,0,0,0-1.56.38,3.5,3.5,0,0,0-1.04,1.3L74.94,34.24,65.7,17.16a3.4,3.4,0,0,0-1.06-1.3,2.868,2.868,0,0,0-1.58-.38,2.128,2.128,0,0,0-2.4,2.4V41H54.38V17.88a2.093,2.093,0,0,0-2.32-2.4,2.77,2.77,0,0,0-1.56.38,3.486,3.486,0,0,0-1.039,1.3L40.22,34.24,30.98,17.16a3.386,3.386,0,0,0-1.06-1.3,2.868,2.868,0,0,0-1.58-.38,2.128,2.128,0,0,0-2.4,2.4V41ZM72.5,41H65.3V25.08L72.82,38.72a2.96,2.96,0,0,0,.84.98,2.108,2.108,0,0,0,1.24.34,2.013,2.013,0,0,0,1.2-.32,3.272,3.272,0,0,0,.84-1L84.46,25V37.152A20.353,20.353,0,0,1,72.5,41ZM49.74,41H30.58V25.08L38.1,38.72a2.952,2.952,0,0,0,.841.98,2.1,2.1,0,0,0,1.239.34,2.013,2.013,0,0,0,1.2-.32,3.263,3.263,0,0,0,.84-1L49.74,25V41Z"
              transform="translate(615 -158)" fill="#ffe5d9"/>
        <circle cx="3" cy="3" r="3" transform="translate(630 -152)" fill="#5c8084"/>
        <path d="M3,0A3,3,0,1,1,0,3,3,3,0,0,1,3,0Z" transform="translate(621.86 -145)" fill="#e07a5f"/>
        <path d="M3,0A3,3,0,1,1,0,3,3,3,0,0,1,3,0Z" transform="translate(621.86 -135)" fill="#5c8084"/>
        <path d="M3,0A3,3,0,1,1,0,3,3,3,0,0,1,3,0Z" transform="translate(629.86 -129)" fill="#e07a5f"/>
    </g>
</svg>